<?xml version="1.0" encoding="UTF-8" standalone="no"?>
<!-- Created with Inkscape (http://www.inkscape.org/) -->

<svg
   width="66.145844mm"
   height="12.441069mm"
   viewBox="0 0 66.145844 12.441069"
   version="1.1"
   id="svg1"
   xmlns="http://www.w3.org/2000/svg"
   xmlns:svg="http://www.w3.org/2000/svg">
  <defs
     id="defs1" />
  <g
     id="layer1"
     transform="translate(-67.799577,-246.50767)">
    <g
       id="SvgjsG1013-0-2"
       featurekey="8L6ael-0"
       transform="matrix(0.83273543,0,0,0.83273543,66.450544,242.34398)"
       fill="#111111"
       style="fill:#2a2a2a;fill-opacity:1">
      <path
         d="m 11.12,11.12 q 0.3,0 0.51,0.21 0.21,0.21 0.21,0.51 v 1.48 q 0,0.28 -0.21,0.49 -0.21,0.21 -0.51,0.21 H 4.54 v 5.12 q 0,0.28 -0.2,0.49 -0.2,0.21 -0.5,0.21 H 2.32 q -0.28,0 -0.49,-0.21 -0.21,-0.21 -0.21,-0.49 v -7.3 q 0,-0.3 0.21,-0.51 0.21,-0.21 0.49,-0.21 z M 12.02,5 q 0.28,0 0.49,0.21 0.21,0.21 0.21,0.49 v 1.46 q 0,0.3 -0.21,0.51 -0.21,0.21 -0.49,0.21 H 2.32 Q 2.04,7.88 1.83,7.67 1.62,7.46 1.62,7.16 V 5.7 Q 1.62,5.42 1.83,5.21 2.04,5 2.32,5 Z m 10.368,0.16 q 0.24,0.2 0.24,0.54 v 1.5 q 0,0.26 -0.15,0.45 -0.15,0.19 -0.41,0.25 -1.28,0.26 -2.18,1.22 -1.22,1.28 -1.22,3.33 0,2.05 1.22,3.35 0.9,0.94 2.18,1.2 0.26,0.06 0.41,0.25 0.15,0.19 0.15,0.45 v 1.5 q 0,0.32 -0.24,0.54 -0.22,0.16 -0.46,0.16 h -0.12 q -2.32,-0.38 -3.98,-2.1 -2.08,-2.14 -2.08,-5.33 0,-3.19 2.08,-5.37 1.62,-1.68 3.98,-2.08 0.32,-0.06 0.58,0.14 z m 6.28,1.94 q 2.08,2.18 2.08,5.37 0,3.19 -2.08,5.33 -1.66,1.72 -3.98,2.1 h -0.12 q -0.24,0 -0.46,-0.16 -0.24,-0.22 -0.24,-0.54 v -1.5 q 0,-0.26 0.15,-0.45 0.15,-0.19 0.41,-0.25 1.28,-0.26 2.18,-1.2 1.22,-1.3 1.22,-3.35 0,-2.05 -1.22,-3.33 -0.9,-0.96 -2.18,-1.22 -0.26,-0.06 -0.41,-0.25 -0.15,-0.19 -0.15,-0.45 V 5.7 q 0,-0.34 0.25,-0.54 0.25,-0.2 0.57,-0.14 2.36,0.4 3.98,2.08 z m 15.728,7 3.02,4.62 q 0.22,0.36 0.02,0.72 -0.08,0.16 -0.25,0.26 -0.17,0.1 -0.35,0.1 h -1.82 q -0.18,0 -0.34,-0.09 -0.16,-0.09 -0.24,-0.23 l -3.04,-4.82 h -3.56 v 4.44 q 0,0.28 -0.21,0.49 -0.21,0.21 -0.49,0.21 h -1.52 q -0.28,0 -0.49,-0.21 -0.21,-0.21 -0.21,-0.49 v -6.58 q 0,-0.28 0.21,-0.49 0.21,-0.21 0.49,-0.21 h 6.16 q 1.76,0 2.34,-1 0.2,-0.32 0.2,-0.92 0,-0.94 -0.62,-1.48 -0.64,-0.58 -1.84,-0.58 h -6.24 q -0.28,0 -0.49,-0.21 -0.21,-0.21 -0.21,-0.49 V 5.7 q 0,-0.28 0.21,-0.49 Q 35.336,5 35.616,5 h 6.42 q 2.34,0 3.74,1.32 1.46,1.32 1.46,3.58 0,1.46 -0.64,2.49 -0.64,1.03 -1.86,1.57 z M 59.464,7.9 q -0.24,-0.04 -0.4,-0.24 -0.16,-0.2 -0.16,-0.44 V 5.7 q 0,-0.3 0.24,-0.54 0.26,-0.2 0.58,-0.14 2.36,0.4 4,2.1 0.84,0.88 1.36,2 0.08,0.14 0.07,0.32 -0.01,0.18 -0.11,0.34 -0.1,0.16 -0.25,0.25 -0.15,0.09 -0.33,0.09 h -1.7 q -0.18,0 -0.34,-0.09 -0.16,-0.09 -0.26,-0.25 -0.28,-0.42 -0.52,-0.66 -0.9,-0.92 -2.18,-1.22 z m -2.04,-2.74 q 0.24,0.24 0.24,0.54 v 1.52 q 0,0.24 -0.16,0.44 -0.16,0.2 -0.4,0.24 -1.28,0.3 -2.18,1.22 -1.24,1.34 -1.24,3.35 0,2.01 1.24,3.35 0.86,0.92 2.18,1.22 0.24,0.04 0.4,0.24 0.16,0.2 0.16,0.44 v 1.52 q 0,0.32 -0.26,0.54 -0.2,0.16 -0.44,0.16 h -0.12 q -2.4,-0.44 -4,-2.12 -2.08,-2.14 -2.08,-5.35 0,-3.21 2.08,-5.35 1.62,-1.7 4,-2.1 0.32,-0.06 0.58,0.14 z m 8.36,6.9 q 0.02,0.14 0.02,0.42 0,0.44 -0.06,1.02 -0.3,2.54 -2.02,4.32 -1.64,1.7 -4,2.12 h -0.12 q -0.24,0 -0.46,-0.16 -0.24,-0.24 -0.24,-0.54 v -1.52 q 0,-0.24 0.16,-0.44 0.16,-0.2 0.4,-0.24 1.32,-0.3 2.18,-1.22 0.7,-0.74 1,-1.7 h -4.24 q -0.3,0 -0.5,-0.2 -0.2,-0.2 -0.2,-0.5 V 12 q 0,-0.28 0.2,-0.49 0.2,-0.21 0.5,-0.21 h 6.68 q 0.28,0 0.48,0.19 0.2,0.19 0.22,0.47 z m 14.568,4.9 q 0.3,0 0.5,0.21 0.2,0.21 0.2,0.51 v 1.46 q 0,0.28 -0.2,0.49 -0.2,0.21 -0.5,0.21 h -9.88 q -0.28,0 -0.49,-0.21 -0.21,-0.21 -0.21,-0.49 v -1.46 q 0,-0.3 0.21,-0.51 0.21,-0.21 0.49,-0.21 z m -9.88,-3.1 q -0.28,0 -0.49,-0.21 -0.21,-0.21 -0.21,-0.49 v -1.5 q 0,-0.28 0.21,-0.49 0.21,-0.21 0.49,-0.21 h 8.98 q 0.3,0 0.51,0.21 0.21,0.21 0.21,0.49 v 1.5 q 0,0.28 -0.21,0.49 -0.21,0.21 -0.51,0.21 z M 80.352,5 q 0.3,0 0.5,0.21 0.2,0.21 0.2,0.49 v 1.46 q 0,0.3 -0.2,0.51 -0.2,0.21 -0.5,0.21 h -9.88 q -0.28,0 -0.49,-0.21 -0.21,-0.21 -0.21,-0.51 V 5.7 q 0,-0.28 0.21,-0.49 Q 70.192,5 70.472,5 Z"
         id="path4-6-2"
         style="fill:#2a2a2a;fill-opacity:1" />
    </g>
  </g>
</svg>
