<?xml version="1.0" encoding="UTF-8" standalone="no"?>
<svg
   width="1080"
   height="1080"
   viewBox="0 0 1080 1080"
   fill="none"
   version="1.1"
   id="svg2"
   sodipodi:docname="mailburner logo.svg"
   inkscape:version="1.4 (e7c3feb100, 2024-10-09)"
   xmlns:inkscape="http://www.inkscape.org/namespaces/inkscape"
   xmlns:sodipodi="http://sodipodi.sourceforge.net/DTD/sodipodi-0.dtd"
   xmlns="http://www.w3.org/2000/svg"
   xmlns:svg="http://www.w3.org/2000/svg">
  <defs
     id="defs2" />
  <sodipodi:namedview
     id="namedview2"
     pagecolor="#505050"
     bordercolor="#eeeeee"
     borderopacity="1"
     inkscape:showpageshadow="0"
     inkscape:pageopacity="0"
     inkscape:pagecheckerboard="0"
     inkscape:deskcolor="#d1d1d1"
     inkscape:zoom="0.93333333"
     inkscape:cx="539.46429"
     inkscape:cy="540"
     inkscape:window-width="2560"
     inkscape:window-height="1355"
     inkscape:window-x="0"
     inkscape:window-y="0"
     inkscape:window-maximized="1"
     inkscape:current-layer="svg2" />
  <path
     fill-rule="evenodd"
     clip-rule="evenodd"
     d="M275.952 220H253.667C231.208 220 211.983 227.997 195.99 243.99C179.997 259.983 172 279.208 172 301.667V873.333C172 895.792 179.997 915.017 195.99 931.01C211.983 947.003 231.208 955 253.667 955H825.333C847.792 955 867.017 947.003 883.01 931.01C899.003 915.017 907 895.792 907 873.333V301.667C907 279.208 899.003 259.983 883.01 243.99C867.017 227.997 847.792 220 825.333 220H804.271V301.667H825.333V669.167H653.833C645.667 693.667 631.035 713.403 609.938 728.375C588.84 743.347 565.361 750.833 539.5 750.833C513.639 750.833 490.16 743.347 469.062 728.375C447.965 713.403 433.333 693.667 425.167 669.167H253.667V301.667H275.952V220ZM825.333 873.333H253.667V750.833H376.167C396.583 776.694 420.913 796.771 449.156 811.062C477.399 825.354 507.514 832.5 539.5 832.5C571.486 832.5 601.601 825.354 629.844 811.062C658.087 796.771 682.417 776.694 702.833 750.833H825.333V873.333Z"
     fill="#486A86"
     id="path1"
     style="fill:#191919;fill-opacity:1" />
  <path
     d="M375 367.789C375 391.646 379.812 414.24 389.438 435.573C399.062 456.906 412.812 475.601 430.688 491.658C430.229 489.364 430 487.3 430 485.464V479.271C430 464.59 432.75 450.827 438.25 437.982C443.75 425.136 451.771 413.437 462.312 402.886L540 326.5L617.688 402.886C628.229 413.437 636.25 425.136 641.75 437.982C647.25 450.827 650 464.59 650 479.271V485.464C650 487.3 649.771 489.364 649.312 491.658C667.188 475.601 680.938 456.906 690.562 435.573C700.188 414.24 705 391.646 705 367.789C705 344.851 700.76 323.174 692.281 302.759C683.802 282.343 671.542 264.107 655.5 248.05C646.333 254.014 636.708 258.487 626.625 261.469C616.542 264.451 606.229 265.942 595.688 265.942C567.271 265.942 542.635 256.537 521.781 237.728C500.927 218.918 488.896 195.75 485.688 168.224C467.812 183.363 452 199.076 438.25 215.363C424.5 231.649 412.927 248.165 403.531 264.91C394.135 281.655 387.031 298.744 382.219 316.178C377.406 333.611 375 350.815 375 367.789ZM540 403.574L500.812 442.111C495.771 447.157 491.875 452.892 489.125 459.314C486.375 465.737 485 472.389 485 479.271C485 493.952 490.385 506.568 501.156 517.12C511.927 527.672 524.875 532.947 540 532.947C555.125 532.947 568.073 527.672 578.844 517.12C589.615 506.568 595 493.952 595 479.271C595 471.931 593.625 465.164 590.875 458.97C588.125 452.777 584.229 447.157 579.188 442.111L540 403.574ZM540 65V155.837C540 171.435 545.385 184.51 556.156 195.062C566.927 205.614 580.104 210.889 595.688 210.889C603.938 210.889 611.615 209.169 618.719 205.728C625.823 202.288 632.125 197.126 637.625 190.245L650 175.105C683.917 194.374 710.729 221.212 730.438 255.62C750.146 290.028 760 327.418 760 367.789C760 429.265 738.688 481.336 696.062 524.001C653.438 566.667 601.417 588 540 588C478.583 588 426.562 566.667 383.938 524.001C341.312 481.336 320 429.265 320 367.789C320 308.608 339.823 252.408 379.469 199.191C419.115 145.973 472.625 101.243 540 65Z"
     fill="#FF941A"
     id="path2" />
</svg>
